<svg id="Calque_1" data-name="Calque 1" xmlns="http://www.w3.org/2000/svg" viewBox="0 0 560 288"><defs><style>.cls-1{fill:red;}</style></defs><title>icon-no</title><path class="cls-1" d="M325.6,136.49c.7,24.83-20.64,45.9-45.82,45.6a45.52,45.52,0,0,1-45.4-45.67c0-26,20.88-45.63,45.76-45.74S326.37,111.56,325.6,136.49ZM297,163.72l10-9.26-17.73-17.18L307.2,120.2c-3.2-3.11-6-5.89-8.9-8.56a1.94,1.94,0,0,0-1.81.23c-2,1.81-4,3.73-5.91,5.67-3.36,3.38-6.69,6.79-10.46,10.63-1.89-2.09-3.51-4-5.27-5.81-3.45-3.5-7-6.9-10.44-10.39a1.51,1.51,0,0,0-2.55,0c-2.14,2.2-4.3,4.38-6.52,6.5-1.18,1.11-1.3,2-.07,3.2,1.44,1.36,2.77,2.83,4.18,4.22l11.64,11.4c-.87.76-1.51,1.25-2.08,1.83q-6.87,6.88-13.7,13.81c-.61.63-1.69,1.25-.62,2.35l8.58,8.8,17.12-17.86Z"/></svg>