<svg id="Calque_1" data-name="Calque 1" xmlns="http://www.w3.org/2000/svg" viewBox="0 0 560 288"><defs><style>.cls-1{fill:#41ad49;}</style></defs><title>icon-yes</title><path class="cls-1" d="M332.44,136.77a46.71,46.71,0,1,1-46.81-46.9A46.69,46.69,0,0,1,332.44,136.77Zm-71.82-6.18a12.44,12.44,0,0,0-1.16.89q-4.32,4.23-8.6,8.48c-1.21,1.2-1.19,1.38.06,2.63,3.92,3.91,7.86,7.82,11.76,11.74,3.41,3.43,6.81,6.86,10.17,10.33.92,1,1.68,1.08,2.6.07.57-.63,1.24-1.18,1.84-1.78q12.93-13,25.85-26,8.72-8.76,17.49-17.46c.92-.91.93-1.52,0-2.42-2.89-2.8-5.75-5.64-8.54-8.54-1-1-1.7-.85-2.59,0q-17,17.07-34,34.11c-1.22,1.23-1.36,1.27-2.59,0q-5.58-5.57-11.15-11.15C261.43,131.25,261.06,131,260.62,130.59Z"/></svg>